<svg xmlns="http://www.w3.org/2000/svg" width="51" height="57" fill="none" viewBox="0 0 51 57">
  <path fill="#currentColor" fill-rule="evenodd" d="M24.19.16c-.492.129-2.834 1.433-11.429 6.363C.954 13.297 1.268 13.095.598 14.355c-.63 1.187-.598.408-.596 14.206 0 13.31-.014 12.86.451 13.907.245.55.866 1.373 1.282 1.696.362.282 21.335 12.341 21.98 12.639.372.17.61.197 1.81.197 1.21 0 1.435-.025 1.82-.203.707-.325 21.62-12.353 22.01-12.658.477-.373 1.23-1.516 1.46-2.212.181-.551.186-.913.186-13.457V15.58l-.277-.664c-.32-.763-.845-1.512-1.363-1.941-.198-.165-5.217-3.087-11.153-6.495C28.763 1.058 27.333.266 26.76.136c-.838-.19-1.785-.18-2.57.024zm2.66 11.678c5.082.448 9.705 3.129 12.567 7.287.32.465.582.882.58.926-.005.132-7.08 4.141-7.117 4.032-.083-.247-.997-1.348-1.497-1.802a8.991 8.991 0 00-3.717-2.021c-1.002-.268-3.098-.295-4.08-.053-3.154.777-5.475 3.002-6.369 6.103-.179.62-.213.974-.214 2.208-.002 1.682.122 2.303.712 3.57.46.988.833 1.53 1.612 2.34 1.085 1.13 2.244 1.835 3.787 2.305.765.233.975.255 2.41.255 1.434 0 1.644-.023 2.409-.255 1.541-.47 2.698-1.173 3.79-2.304.344-.358.746-.832.893-1.054.146-.221.297-.403.334-.403.067 0 6.933 3.928 7.024 4.019.114.113-1.076 1.78-1.979 2.771-1.853 2.035-4.411 3.716-7.046 4.628-2.777.962-5.898 1.16-8.854.559-4.924-1-9.349-4.425-11.662-9.025-3.856-7.669-1.175-16.955 6.238-21.605 1.53-.959 3.71-1.825 5.53-2.196 1.741-.354 2.988-.43 4.649-.284zm13.626 14.926v.9H42.381V29.372H40.476v1.895h-1.714v-1.895h-1.81v-1.706h1.81V25.864h1.714v.9zm7.143 0v.9h1.81V29.372h-1.803l-.027.924-.028.924h-1.714l-.027-.924-.027-.924H44v-1.706H45.809V25.864h1.81v.9z" clip-rule="evenodd"/>
</svg>
