<svg xmlns="http://www.w3.org/2000/svg" width="114" height="114" fill="none" viewBox="0 0 114 114">
  <path fill="#currentColor" fill-rule="evenodd" d="M0 57v57h114V0H0v57zm91.262-4.77c4.127.875 7.234 2.897 9.49 6.176l1.197 1.739-.847.639c-.466.351-2.305 1.556-4.085 2.678L93.779 65.5l-1.33-1.602c-1.712-2.06-3.028-2.719-5.429-2.719-3.63 0-5.584 1.957-5.216 5.222.254 2.254 1.496 3.469 5.336 5.22 11.228 5.118 14.443 7.343 16.388 11.34 1.933 3.973 1.959 10.115.06 13.864-1.115 2.199-4.244 5.196-6.44 6.167-2.956 1.308-6.006 1.887-9.938 1.887-6.297 0-11.2-1.722-15.119-5.308-2.694-2.467-4.453-5.234-3.654-5.75.293-.188 2.212-1.3 4.264-2.469l3.73-2.125 2.048 2.262c2.567 2.836 5.01 3.987 8.544 4.022 3.496.035 5.9-1.155 6.899-3.414 1.462-3.305-.075-5.595-5.382-8.022-8.994-4.113-10.825-5.154-13.143-7.472-3.088-3.088-4.08-5.566-4.119-10.294-.037-4.478.745-6.74 3.294-9.529 3.898-4.265 10.083-5.951 16.69-4.551zM61.86 73.245l-.11 20.805-.917 2.277c-1.24 3.082-4.368 6.208-7.446 7.443-2.01.808-2.877.915-7.407.917-4.98.003-5.204-.032-7.685-1.207-2.912-1.38-5.99-4.078-7.403-6.49-.53-.904-.9-1.69-.823-1.748.176-.129 8.034-4.868 8.357-5.041.13-.07.84.784 1.579 1.896 1.728 2.603 3.367 3.425 6.392 3.207 1.479-.107 2.49-.405 3.041-.897 1.84-1.64 1.862-1.911 1.862-22.575V52.44h10.67l-.11 20.805z" clip-rule="evenodd"/>
</svg>
