<svg xmlns="http://www.w3.org/2000/svg" width="62" height="62" fill="none" viewBox="0 0 62 62">
  <path fill="#currentColor" fill-rule="evenodd" d="M.113.143C-.221.384-.021 1.28 3.647 15.954c2.14 8.556 5.574 22.3 7.634 30.542 2.06 8.242 3.843 15.102 3.963 15.245.12.142.338.259.486.259.301 0 46.071-43.474 46.247-43.927.061-.157-.005-.401-.147-.542C61.637 17.34 27.443 7.504 1.783.258.68-.053.41-.072.113.143zm13.96 5.11c.268.12-.607 1.044-4.394 4.632-2.601 2.464-4.79 4.465-4.866 4.445-.125-.032-3.169-11.943-3.184-12.46-.006-.188 11.398 2.912 12.444 3.383zm9.092 2.522c3.267.928 6.01 1.747 6.096 1.819.085.072-1.934 2.13-4.488 4.573-2.553 2.443-4.679 4.406-4.723 4.362-.218-.216-3.185-12.443-3.019-12.443.106 0 2.866.76 6.134 1.689zm-6.11 4.864c.838 3.39 1.486 6.199 1.443 6.242-.084.083-11.87-3.2-12.292-3.424-.154-.082 1.464-1.748 4.424-4.555 2.567-2.435 4.72-4.427 4.785-4.427.065 0 .803 2.774 1.64 6.164zm21.02-.612c3.193.91 5.967 1.722 6.164 1.805.294.125-.457.924-4.309 4.58-2.566 2.436-4.724 4.429-4.795 4.429-.071 0-.772-2.608-1.557-5.796-.785-3.188-1.48-5.994-1.544-6.235-.065-.24-.039-.438.058-.438.096 0 2.788.745 5.982 1.655zM30.68 11.2c.059.24.757 3.046 1.552 6.234s1.41 5.796 1.366 5.796c-.08 0-8.708-2.429-11.19-3.15l-1.377-.401 4.628-4.45c2.545-2.448 4.692-4.455 4.771-4.459.08-.005.192.189.25.43zm22.794 5.214c3.392.965 6.239 1.778 6.326 1.806.164.051-9.295 9.102-9.512 9.102-.104 0-3.164-12.125-3.159-12.518.001-.08.041-.146.09-.146.047 0 2.862.79 6.255 1.756zm-6.262 4.78c.847 3.382 1.492 6.196 1.432 6.255-.106.105-11.845-3.159-12.266-3.41-.181-.109 8.88-8.974 9.186-8.987.059-.002.8 2.762 1.648 6.143zm-35.37-2.646c3.402.96 6.217 1.78 6.257 1.82.041.04-2.061 2.114-4.671 4.609-2.61 2.494-4.817 4.459-4.904 4.365-.088-.093-.794-2.756-1.57-5.917-.776-3.16-1.46-5.945-1.521-6.186-.061-.24-.035-.438.058-.438s2.951.786 6.352 1.747zm15.17 4.286c3.402.961 6.208 1.772 6.237 1.802.029.03-2.089 2.089-4.706 4.575l-4.758 4.519-1.521-5.98c-1.356-5.332-1.652-6.663-1.483-6.663.027 0 2.831.786 6.232 1.747zm-6.15 5.023c.873 3.51 1.575 6.398 1.559 6.42-.042.057-12.603-3.5-12.722-3.602-.1-.086 9.268-9.182 9.467-9.192.06-.004.823 2.865 1.696 6.374zm21.49-.617c3.384.956 6.132 1.8 6.107 1.877-.026.077-2.175 2.155-4.776 4.619-3.795 3.595-4.756 4.413-4.872 4.146-.13-.297-3.107-12.238-3.107-12.46 0-.05.111-.052.247-.005.135.047 3.015.867 6.4 1.823zm-6.44 4.958c.864 3.459 1.545 6.314 1.514 6.344-.122.12-12.573-3.537-12.592-3.7-.023-.194 9.326-9.112 9.438-9.002.038.038.776 2.9 1.64 6.358zm-20.247 1.653c3.335.942 6.04 1.771 6.009 1.844-.031.073-2.14 2.117-4.686 4.542-3.734 3.558-4.658 4.346-4.776 4.076-.08-.184-.77-2.877-1.531-5.984-.762-3.107-1.438-5.817-1.502-6.02-.083-.262-.038-.34.152-.27.148.056 2.998.871 6.334 1.812zm10.361 15.185c-.07.07-12.407-3.355-12.532-3.48-.026-.025 2.102-2.083 4.728-4.572l4.775-4.526 1.555 6.249c.856 3.437 1.519 6.285 1.474 6.329zm4.875-10.85c3.264.936 5.923 1.789 5.91 1.895-.03.245-8.975 8.782-9.148 8.731-.108-.03-3.165-11.742-3.183-12.188-.01-.262.417-.158 6.421 1.563zM25.789 50.57c.042.042-2.1 2.16-4.76 4.71-2.66 2.548-4.873 4.598-4.917 4.554-.063-.062-3.26-12.748-3.26-12.934 0-.063 12.847 3.581 12.937 3.67z" clip-rule="evenodd"/>
</svg>
