<svg xmlns="http://www.w3.org/2000/svg" width="36.8126mm" height="16.1089mm" viewBox="0 0 206 90">
  <path fill="#currentColor" fill-rule="evenodd" d="M47 24l-7 0 0 -4 -3 0 0 -3 -4 0 0 3 -3 0 0 4 -7 0 0 -24 7 0 0 10 3 0 0 -3 4 0 0 3 3 0 0 -10 7 0 0 24zm26 -4l-4 0 0 4 -17 0 0 -4 -3 0 0 -17 3 0 0 -3 17 0 0 3 4 0 0 17zm-7 0l0 -17 -10 0 0 17 10 0zm33 -7l-7 0 0 4 3 0 0 3 4 0 0 4 -10 0 0 -4 -4 0 0 -3 -3 0 0 7 -7 0 0 -24 20 0 0 3 4 0 0 10zm-7 -3l0 -7 -10 0 0 10 7 0 0 -3 3 0zm33 14l-10 0 0 -4 -4 0 0 -3 -3 0 0 7 -7 0 0 -24 7 0 0 10 3 0 0 -3 4 0 0 -4 3 0 0 -3 7 0 0 3 -3 0 0 4 -4 0 0 3 -3 0 0 3 3 0 0 4 3 0 0 3 4 0 0 4zm31 0l-20 0 0 -4 6 0 0 -17 -6 0 0 -3 20 0 0 3 -7 0 0 17 7 0 0 4zm27 0l-7 0 0 -4 -3 0 0 -3 -4 0 0 -3 -3 0 0 10 -7 0 0 -24 7 0 0 3 3 0 0 4 4 0 0 3 3 0 0 -10 7 0 0 24z"/>
  <path fill="#currentColor" fill-rule="evenodd" d="M24 50l-4 0 0 3 -13 0 0 7 -7 0 0 -24 20 0 0 3 4 0 0 11zm-7 0l0 -10 -10 0 0 10 10 0zm33 0l-7 0 0 3 3 0 0 3 4 0 0 4 -10 0 0 -3 -4 0 0 -4 -3 0 0 7 -7 0 0 -24 20 0 0 3 4 0 0 11zm-7 -4l0 -6 -10 0 0 10 7 0 0 -4 3 0zm33 10l-4 0 0 4 -16 0 0 -4 -4 0 0 -16 3 0 0 -4 17 0 0 3 4 0 0 17zm-7 0l0 -16 -10 0 0 16 10 0zm33 4l-17 0 0 -4 -3 0 0 -3 -4 0 0 -10 3 0 0 -4 4 0 0 -3 17 0 0 3 -14 0 0 4 -3 0 0 10 3 0 0 3 7 0 0 -6 -3 0 0 -4 10 0 0 14zm26 -10l-7 0 0 3 3 0 0 3 4 0 0 4 -10 0 0 -3 -4 0 0 -4 -3 0 0 7 -7 0 0 -24 20 0 0 3 4 0 0 11zm-7 -4l0 -6 -10 0 0 10 7 0 0 -4 3 0zm33 14l-24 0 0 -24 24 0 0 3 -17 0 0 7 10 0 0 3 -10 0 0 7 17 0 0 4zm26 -4l-3 0 0 4 -17 0 0 -4 -4 0 0 -3 7 0 0 3 10 0 0 -6 -13 0 0 -4 -4 0 0 -6 4 0 0 -4 13 0 0 3 4 0 0 4 -7 0 0 -3 -7 0 0 6 14 0 0 4 3 0 0 6zm26 0l-3 0 0 4 -17 0 0 -4 -4 0 0 -3 7 0 0 3 10 0 0 -6 -13 0 0 -4 -4 0 0 -6 4 0 0 -4 13 0 0 3 4 0 0 4 -7 0 0 -3 -7 0 0 6 14 0 0 4 3 0 0 6z"/>
  <polygon fill="#currentColor" fill-rule="evenodd" points="71,75 85,75 85,90 71,90 "/>
  <polygon fill="#currentColor" fill-rule="evenodd" points="96,75 110,75 110,90 96,90 "/>
  <polygon fill="#currentColor" fill-rule="evenodd" points="120,75 135,75 135,90 120,90 "/>
</svg>
