<svg xmlns="http://www.w3.org/2000/svg" width="69" height="66" fill="none" viewBox="0 0 69 66">
  <path fill="#currentColor" fill-rule="evenodd" d="M30.625.211c-3.5.441-5.887 1.017-8.639 2.083-6.955 2.695-12.654 7.32-16.67 13.527C2.789 19.73.898 24.699.41 28.716c-.1.825-.233 1.5-.296 1.5C.051 30.215 0 31.85 0 33.85c0 2 .051 3.635.114 3.635.062 0 .19.626.283 1.39.5 4.092 2.395 9.07 4.929 12.951C9.4 58.067 14.956 62.621 21.645 65.2c2.54.98 3.123 1.027 3.892.316l.52-.48V61.55c0-1.919-.035-3.522-.077-3.564-.043-.042-.387-.014-.765.06-1.077.215-4.326.163-5.624-.089-1.43-.277-2.713-.86-3.61-1.641-.557-.485-.892-1.008-1.775-2.764-1.259-2.506-2.076-3.562-3.439-4.44-.96-.62-1.45-1.152-1.45-1.574 0-.64 1.983-.611 3.415.05 1.37.631 2.287 1.436 3.221 2.827 1.719 2.558 3.278 3.607 5.534 3.723 1.336.069 2.76-.132 3.9-.55l.762-.279.185-.91c.229-1.126.745-2.24 1.404-3.027.277-.33.503-.638.503-.683 0-.046-.186-.083-.412-.083-.642 0-3.628-.552-4.756-.878-1.242-.36-3.929-1.662-4.942-2.395-3.698-2.676-5.635-7.539-5.424-13.62.114-3.29.85-5.445 2.633-7.717l.798-1.018-.312-.907c-.46-1.337-.453-4.565.012-6.16.18-.614.43-1.313.556-1.551.228-.433.232-.434 1.198-.351 1.684.144 4.992 1.44 7.168 2.807l1.156.726 2-.426c2.7-.575 5.143-.786 7.821-.677 2.485.101 3.538.235 5.867.746l1.646.361 1.184-.744c2.366-1.486 5.33-2.66 7.06-2.795l1.054-.083.241.555c.844 1.938 1.15 4.893.71 6.842-.139.62-.313 1.236-.385 1.37-.1.188.054.48.673 1.264.99 1.254 1.865 2.97 2.285 4.48.276.99.319 1.515.324 3.99.006 3.073-.155 4.263-.884 6.54-.855 2.67-2.492 4.94-4.647 6.447-2.174 1.519-5.434 2.68-8.625 3.07l-1.462.178.418.466c.644.719 1.185 1.704 1.506 2.741.265.859.299 1.492.375 7.003.089 6.374.096 6.442.773 6.906.612.42 1.503.273 3.776-.623 4.591-1.81 8.276-4.25 11.729-7.767 3.749-3.819 6.463-8.184 8.064-12.968.687-2.053 1.29-4.52 1.29-5.279 0-.203.065-.37.145-.37.095 0 .146-1.734.146-4.918 0-3.183-.051-4.918-.146-4.918-.08 0-.145-.166-.145-.37 0-.762-.605-3.23-1.308-5.34C63.616 11.873 53.508 3.006 41.747.72 38.006-.007 33.86-.197 30.625.211z" clip-rule="evenodd"/>
</svg>
