<svg xmlns="http://www.w3.org/2000/svg" width="52" height="63" fill="none" viewBox="0 0 52 63">
  <path fill="#currentColor" fill-rule="evenodd" d="M15.166.226c-.086.138.445 1.331 1.18 2.652 1.208 2.167 1.353 2.601 1.493 4.46l.155 2.06 1.359.078 1.36.078V7.602c0-1.88.052-2.05 1.428-4.566.825-1.51 1.332-2.71 1.2-2.841-.126-.125-.74-.191-1.364-.147-1.119.08-1.147.105-1.9 1.706L19.31 3.38l-.788-1.625C17.736.132 17.733.13 16.53.052c-.664-.043-1.277.035-1.363.174zm10.2.213c-1.014.695-1.271 1.16-1.28 2.315-.01 1.325.633 2.144 2.45 3.118 1.328.713 1.5 1.024.81 1.458-.365.228-1.086.1-3.074-.548-.388-.126-.453.025-.453 1.048 0 1.066.077 1.224.712 1.468.392.15 1.569.23 2.616.18 1.767-.086 1.958-.152 2.654-.927.58-.646.748-1.081.744-1.925-.008-1.361-.51-2.003-2.242-2.862-.737-.365-1.422-.795-1.521-.955-.26-.416.423-.78 1.145-.61 1.978.464 1.969.466 2.305-.459.424-1.166.435-1.134-.497-1.457-1.264-.438-3.626-.354-4.37.156zm8.23.092c-1.371.72-2.01 2.084-2.01 4.29 0 2.762 1.453 4.706 3.517 4.706.713 0 .988.189 1.689 1.159.827 1.145.853 1.158 2.346 1.158.918 0 1.51-.11 1.51-.28 0-.155-.409-.756-.907-1.335-.904-1.05-.905-1.056-.401-1.59 1.353-1.432 1.73-4.517.79-6.45C39.416.723 38.066-.003 36.08.012c-.993.007-1.852.187-2.486.52zm8.79-.37c-.102.1-.185 2.249-.185 4.774v4.592h6.243l-.08-1.094-.079-1.095-1.74-.076-1.74-.075-.073-3.53L44.66.13 43.617.053c-.575-.042-1.129.006-1.23.107zM3.424 4.827l.071 4.57 1.092.079 1.091.079.074-2.911.073-2.911.467 1.545c.256.85.638 2.153.848 2.896l.383 1.352h2.511l.787-2.768.786-2.768.022 2.782.022 2.782 1.23-.078 1.23-.079.07-4.57.07-4.57h-3.614l-.511 1.738-.89 3.025L8.86 6.31l-.287-.725c-.158-.399-.287-.788-.287-.864 0-.077-.298-1.112-.663-2.3L6.959.257H3.354l.07 4.57zM37.397 2.89c.242.344.403 1.12.403 1.943 0 1.111-.12 1.49-.636 2.002-.784.78-1.353.799-2.131.072-.497-.464-.6-.822-.6-2.104 0-1.839.445-2.485 1.71-2.485.585 0 .976.178 1.254.572zm-36.16 9.596C.276 13.026 0 13.634 0 15.191c0 1.57.11 1.802 2.201 4.635 1.289 1.746 1.812 2.761 2.588 5.02C5.89 28.06 6.91 30.2 7.886 31.354l.67.79-.626 2.403c-.837 3.21-.987 4.873-.668 7.399.426 3.385 1.923 6.229 3.727 7.08.855.404.983.404 1.814.012.946-.446 1.25-1.062 1.578-3.206.097-.638.23-1.247.294-1.355.064-.108.488.529.94 1.415 1.093 2.135 5.253 6.307 5.774 5.79.078-.079-.516-1.077-1.32-2.219-1.433-2.032-4.024-6.8-4.878-8.974-.236-.602-.546-1.094-.689-1.094-.4 0-1.778 2.02-2.088 3.06-.152.512-.376 1.664-.498 2.56-.121.897-.286 1.695-.366 1.775-.266.264-.934-.496-1.444-1.642-1.299-2.92-1.354-7.444-.134-10.859.764-2.135.702-3.004-.28-3.922-1.004-.937-1.797-2.478-2.71-5.262-1.056-3.224-1.712-4.534-3.304-6.601-1.562-2.028-1.866-2.585-1.866-3.423 0-.665.248-.782 1.424-.672.874.082 4.01 1.61 5.142 2.506.913.722 1.282.848 2.496.856 2.043.013 3.47.393 5.825 1.552 5.564 2.738 11.42 8.82 13.607 14.134 1.282 3.112 4.392 9.6 5.105 10.65.638.94.97 1.131 3.482 2.005 2.13.742 3.47 1.431 5.76 2.96 1.642 1.097 2.985 2.074 2.985 2.17 0 .098-.962.246-2.136.33-2.383.17-5.586 1.051-5.795 1.594-.241.626.704 2.161 2.128 3.455.803.73 2.592 1.873 4.25 2.717 1.575.8 3.51 1.98 4.302 2.621.79.64 1.497 1.107 1.569 1.035.511-.51-3.506-4.58-6.364-6.448-1.399-.915-2.609-1.833-2.69-2.04-.113-.297.338-.469 2.101-.801 4.263-.805 5.088-1.037 5.167-1.451.215-1.136-5.427-5.57-9.73-7.644l-2.925-1.411-1.629-3.254a138.006 138.006 0 01-2.894-6.215c-2.454-5.741-6.407-10.6-11.628-14.292-3.665-2.59-5.789-3.474-9.234-3.84-1.236-.132-1.967-.366-2.59-.83-.476-.356-1.682-1.059-2.677-1.562-2.14-1.082-4.457-1.378-5.627-.719zm9.12 8.716c0 .19.216.541.48.78.266.239.692.895.948 1.46.441.973.49 1.003.942.595 1.128-1.015.051-3.181-1.583-3.181-.487 0-.788.132-.788.346z" clip-rule="evenodd"/>
</svg>
