<svg xmlns="http://www.w3.org/2000/svg" width="127" height="113" fill="none" viewBox="0 0 127 113">
  <path fill="#currentColor" fill-rule="evenodd" d="M88.381.026c-5.184.287-11.756 3.286-18.363 8.38-1.945 1.5-3.394 2.746-6.082 5.228l-.388.357-.72-.676C58.987 9.71 54.605 6.437 50.61 4.19c-1.054-.593-3.24-1.658-4.31-2.101C44.19 1.215 42.101.613 40.098.3c-.966-.15-3.14-.212-4.012-.113-4.92.558-8.193 3.463-10.066 8.934-2.04 5.962-1.933 14.684.298 24.446.192.84.352 1.562.356 1.605.005.056-.321.178-1.095.41C14.651 38.85 6.457 43.697 2.54 49.215c-3.722 5.24-3.351 10.557 1.11 15.89.602.722 2.282 2.388 3.115 3.09 4.007 3.383 9.44 6.308 16.019 8.625.941.332 2.826.933 3.509 1.12l.345.094-.137.573c-2.694 11.304-2.63 20.734.182 27.004 1.954 4.354 5.025 6.735 9.407 7.293.697.089 2.626.088 3.418-.001 5.835-.657 12.516-3.893 19.324-9.358a74.894 74.894 0 003.496-3.004c.4-.371.883-.818 1.074-.993l.345-.317.763.714c6.358 5.955 12.503 9.967 18.193 11.878 2.632.884 4.679 1.227 6.992 1.17 2.55-.062 4.525-.682 6.4-2.008.674-.477 1.88-1.673 2.436-2.417 2.332-3.119 3.651-7.468 4.009-13.224.076-1.216.041-4.954-.058-6.189a70.39 70.39 0 00-1.714-10.83l-.137-.573.797-.242c6.287-1.907 12.455-4.799 16.698-7.827 5.258-3.753 8.245-7.827 8.791-11.99.606-4.631-2.071-9.35-7.729-13.62-3.355-2.533-7.723-4.831-12.894-6.786-1.228-.464-4.022-1.401-5.202-1.745l-.738-.215.158-.654c.791-3.273 1.434-7.326 1.724-10.874.125-1.52.143-6.12.029-7.387-.495-5.523-1.792-9.44-4.082-12.322-.477-.602-1.474-1.576-2.032-1.987C94.016.53 91.49-.146 88.381.026zm1.768 5.48c1.486.16 2.455.622 3.418 1.631 1.796 1.88 2.91 5.32 3.262 10.067.078 1.054.078 4.166 0 5.37a62.655 62.655 0 01-.94 7.489c-.199 1.09-.787 3.809-.834 3.855-.014.014-.682-.115-1.485-.286-4.681-.999-8.801-1.65-13.833-2.188-.9-.096-1.64-.18-1.644-.184-.16-.257-1.892-2.636-2.765-3.799a121.542 121.542 0 00-7.185-8.74l-.751-.829.974-.9c3.394-3.134 6.454-5.51 9.534-7.4 4.77-2.928 9.217-4.411 12.25-4.086zm-50.98.197c5.367.73 12.52 4.83 19.38 11.11.497.456.962.892 1.035.97l.13.144-.697.758c-2.14 2.325-4.796 5.515-7.12 8.552-.718.939-2.813 3.786-2.916 3.964-.023.04-.515.114-1.224.187-5.261.542-10.005 1.278-14.627 2.271-.586.126-1.084.208-1.108.182-.062-.07-.534-2.154-.85-3.75-1.074-5.446-1.395-10.53-.928-14.696.433-3.855 1.609-6.93 3.223-8.424 1.286-1.191 3.177-1.611 5.701-1.268zm25.094 16.885a114.688 114.688 0 014.236 4.988c1.089 1.359 2.458 3.149 2.43 3.177-.014.014-.72-.003-1.57-.037-3.638-.146-9.595-.13-12.616.035l-.675.036.473-.616c.812-1.06 2.835-3.57 3.66-4.545 1.35-1.59 3.285-3.775 3.353-3.783.019-.002.338.333.71.745zm3.552 13.551c2.075.063 3.325.121 5.622.262l1.553.096.17.182c.186.2 1.683 2.485 2.96 4.518 2.709 4.318 5.771 9.752 7.932 14.076l.594 1.19-.493 1.015c-2.539 5.225-6.617 12.334-10.295 17.947-.58.885-.764 1.127-.86 1.127-.066 0-.451.025-.855.055-5.402.407-13.64.442-20.272.086-.863-.047-1.632-.084-1.708-.084-.115 0-.227-.132-.66-.778a155.941 155.941 0 01-9.228-15.557c-.934-1.8-1.835-3.649-1.835-3.767 0-.092 1.508-3.122 2.388-4.796 2.41-4.587 5.025-9.01 7.91-13.38 1.08-1.64 1.198-1.796 1.36-1.822.188-.03 1.352-.11 2.919-.2.91-.052 3.645-.16 4.774-.189 1.626-.041 6.393-.03 8.024.02zm-22.912 1.096c0 .013-.296.489-.657 1.058-1.936 3.05-4.612 7.702-6.327 11-.214.412-.402.748-.418.749-.066.003-1.563-3.783-2.345-5.934-.591-1.623-1.664-4.885-1.62-4.924.043-.04 2.667-.584 4.05-.84 1.48-.273 3.512-.6 5.227-.842 2.266-.319 2.09-.296 2.09-.267zm38.986.235c2.734.38 5.63.887 8.25 1.448.73.156 1.351.306 1.38.334.129.122-1.665 5.205-2.988 8.468-.863 2.128-.945 2.323-.984 2.322-.02 0-.262-.427-.539-.947-1.949-3.66-5.208-9.25-6.84-11.731l-.105-.16.193.033c.106.018.841.123 1.633.233zm-54.924 5.451a130.858 130.858 0 004.858 12.425c.283.628.514 1.16.514 1.18 0 .022-.328.779-.73 1.682-2.051 4.62-3.79 9.16-5.152 13.454-.188.59-.35 1.082-.36 1.092-.01.01-.434-.108-.942-.264-8.043-2.466-14.559-5.982-18.412-9.935-1.708-1.753-2.69-3.3-3.117-4.909-.475-1.795.137-3.744 1.857-5.907.468-.59 1.788-1.92 2.476-2.496 3.57-2.99 8.683-5.63 14.916-7.698 1.492-.496 3.146-.997 3.237-.982.044.008.396.98.855 2.358zm71.472-1.854c7.843 2.42 14.317 5.864 18.013 9.583 1.692 1.703 2.719 3.397 3.018 4.976.104.551.038 1.573-.142 2.189-.43 1.47-1.48 3.058-3.083 4.663-2.995 2.997-7.616 5.763-13.533 8.098-1.927.76-5.49 1.952-5.571 1.863-.021-.023-.132-.334-.246-.691-1.315-4.122-3.51-9.635-5.652-14.198l-.522-1.112.55-1.209c1.98-4.348 3.808-9.028 5.178-13.252.438-1.35.446-1.367.585-1.333.078.018.71.209 1.405.423zm-37.707 4.01c-4.446.267-8.358 3.215-9.913 7.469-1.17 3.202-.801 6.83.996 9.785 2.191 3.6 6.27 5.704 10.48 5.403 6.871-.491 11.7-6.876 10.324-13.65-.343-1.686-1.22-3.53-2.313-4.86a15.803 15.803 0 00-1.708-1.696c-2.189-1.762-4.962-2.627-7.867-2.452zm27.442 19.026a112.934 112.934 0 013.121 8.148c.298.883.535 1.611.527 1.618-.065.054-3.601.766-5.164 1.039-2.179.38-6.493 1.01-6.548.955-.01-.01.237-.425.55-.922 1.988-3.166 5.15-8.678 6.57-11.46.187-.364.353-.663.368-.663.016 0 .275.578.576 1.285zm-51.045 1.908a169.385 169.385 0 005.108 8.696c.43.679.781 1.243.781 1.254 0 .01-.082.007-.183-.007-.102-.013-.718-.09-1.37-.168a118.169 118.169 0 01-6.724-1.02c-1.47-.267-3.253-.63-3.294-.67-.06-.06 1.285-4.022 2.158-6.351a188.41 188.41 0 011.786-4.506l.119-.276.455.874c.25.48.774 1.459 1.164 2.174zM95.41 79.449c.802 3.393 1.28 6.289 1.564 9.453.123 1.377.171 5.072.084 6.424-.307 4.756-1.52 8.53-3.373 10.502-.66.7-1.325 1.132-2.168 1.406-1.167.378-2.682.42-4.355.12-5.372-.966-12.125-5.026-18.825-11.32l-.777-.73.156-.186c.085-.102.601-.69 1.146-1.307 2.752-3.116 5.814-7.03 8.527-10.9.414-.591.76-1.083.769-1.094.009-.01.75-.093 1.645-.184 4.945-.5 9.437-1.187 13.72-2.096.746-.158 1.432-.307 1.526-.33.28-.071.288-.066.361.242zm-61.468.349c4.163.83 8.615 1.467 13.278 1.9l1.79.166c.005 0 .17.224.365.496 3.024 4.216 6.473 8.504 9.649 11.996l.736.81.144.161-.312.292c-1.699 1.585-2.755 2.51-4.151 3.632-5.975 4.803-11.937 7.752-16.608 8.214-1.704.169-3.25-.066-4.326-.655-3.058-1.676-4.79-7.41-4.474-14.813.152-3.557.599-6.815 1.462-10.669l.376-1.682c.044-.202.08-.262.147-.241.048.015.914.192 1.924.393zm25.173 2.576c3.927.089 8.41.053 11.265-.09l.757-.038-1.063 1.406c-1.195 1.583-2.88 3.7-3.952 4.967-1.133 1.339-2.372 2.736-2.416 2.724-.132-.035-3.23-3.594-4.757-5.465-.98-1.201-2.76-3.472-2.792-3.564-.011-.03.087-.04.226-.024.134.016 1.364.054 2.732.084z" clip-rule="evenodd"/>
</svg>
