<svg xmlns="http://www.w3.org/2000/svg" width="469" height="227" fill="" viewBox="0 0 469 227">
  <path fill="#currentColor" fill-rule="evenodd" d="M310.567 1.152c-39.831 2.76-82.324 11.784-125.798 26.71-12.248 4.207-12.88 4.493-12.731 5.773.086.741.377 1.569.648 1.84.283.282 4.509-.94 9.93-2.87 41.843-14.906 87.276-24.695 128.231-27.63 11.396-.817 39.542-.331 48.801.842 33.646 4.262 55.738 15.025 64.093 31.226 1.33 2.578 2.466 4.752 2.527 4.83.06.078.894-.131 1.853-.466l1.745-.608-1.324-2.995c-2.999-6.782-10.05-14.731-17.348-19.56-14.012-9.273-34.957-15.131-61.155-17.106-8.868-.668-29.74-.661-39.472.014zm19.612 28.505c-4.383 2.337-10.279 9.28-14.024 16.517-1.868 3.611-2.226 4.841-2.226 7.661 0 5.246 2.165 8.24 6.873 9.508 3.463.933 4.414.411 6.286-3.45 2.258-4.66 7.483-10.631 13.382-15.294 2.683-2.121 5.137-4.34 5.453-4.931 1.959-3.661-5.992-11.106-11.821-11.069-1.079.007-2.844.483-3.923 1.058zM131.947 50.449c-11.273 2.222-27.434 20.088-40.772 45.074-5.343 10.008-15.951 24.302-21.01 28.308-4.283 3.393-7.701 4.008-8.981 1.617-.749-1.399.51-6.564 2.614-10.724 4.611-9.119 13.883-20.219 18.461-22.102 2.474-1.017 2.484-1.033 2.474-3.823-.022-6.24-4.844-11.487-10.553-11.487-1.258 0-1.716-.31-1.973-1.333-.56-2.228-5.136-6.825-8.039-8.073-8.115-3.491-18.708-1.28-28.022 5.848C20.641 85.622 7.42 109.632 7.42 125.921c0 12.281 8.558 22.369 18.025 21.248 4.068-.482 7.912-2.875 12.566-7.822 3.393-3.607 4.21-4.225 4.474-3.385 1.934 6.12 4.742 9.036 10.245 10.636 5.243 1.524 10.448.346 15.628-3.538 1.001-.751 1.82-1.249 1.82-1.107 0 .142-.762 2.592-1.694 5.444-3.648 11.162-4.68 16.122-4.716 22.652-.03 5.423.125 6.467 1.285 8.686 5.847 11.18 19.421 13.587 28.023 4.97 7.836-7.852 13.057-21.632 15.532-40.996.929-7.272.857-21.409-.133-25.893l-.371-1.681 2.297 2.07c4.225 3.807 8.825 5.377 13.002 4.439 1.375-.309 2.573-.489 2.662-.399.09.089-.937 2.534-2.281 5.432-9.526 20.538-17.03 43.808-16.498 51.163.231 3.182.375 3.459 3.112 5.975 3.067 2.821 6.821 4.445 10.272 4.445 2.782 0 3.625-.974 4.063-4.699.988-8.405 11.406-34.186 22.669-56.098 2.64-5.137 2.846-5.393 2.473-3.082-.224 1.387-.4 4.917-.389 7.845.014 4.162.27 5.873 1.174 7.845 2.315 5.051 6.129 7.295 12.364 7.276 13.283-.041 27.57-11.164 37.459-29.163 1.429-2.601 2.456-4.286 2.283-3.743-1.879 5.888-1.806 16.157.152 21.229 1.474 3.821 4.849 7.795 8.383 9.873 2.181 1.282 3.246 1.529 6.529 1.515 5.242-.022 7.743-1.379 13.559-7.361l4.594-4.724.588 2.184c1.704 6.327 8.631 10.753 15.76 10.068 5.39-.518 12.745-5.64 18.478-12.868 2.198-2.77 2.772-2.873 2.781-.497.008 2.146 2.36 6.787 4.532 8.943 3.048 3.024 6.249 4.213 11.432 4.245 3.835.023 4.969-.208 7.845-1.6 4.581-2.216 12.322-10.102 17.38-17.705l3.913-5.883.347 4.482c.584 7.546 2.2 11.894 5.977 16.073 2.91 3.221 6.151 4.529 11.402 4.601 4.233.059 4.32.031 8.265-2.661 7.339-5.009 20.505-20.339 28.531-33.217 3.874-6.217 9.326-17.212 11.146-22.477 1.25-3.616 1.498-5.285 1.479-9.948-.047-11.266-3.88-16.522-13.483-18.485l-1.809-.37.825 1.582c1.177 2.255 1.032 5.418-.529 11.57-1.797 7.087-5.648 16.093-10.511 24.581-7.823 13.656-15.783 24.127-19.516 25.673-1.472.61-1.848.57-2.807-.297-1.343-1.216-1.408-3.353-.237-7.854 2.645-10.167 12.521-28.232 21.075-38.55 1.491-1.8 2.711-3.527 2.711-3.838 0-.313-.832-1.4-1.85-2.419-2.37-2.37-6.53-3.659-12.999-4.028-4.932-.282-5.094-.251-7.36 1.407-4.278 3.131-10.19 13.261-14.492 24.833-3.538 9.514-18.182 28.027-24.14 30.517-4.189 1.75-6.221.592-5.614-3.2 1.314-8.221 11.591-26.215 23.006-40.282 2.625-3.236 4.777-6.232 4.78-6.658.003-.425-.892-1.62-1.989-2.655-2.288-2.157-5.905-3.347-11.863-3.9-3.295-.307-4.32-.202-5.484.56-2.82 1.848-9.379 11.771-17.224 26.055-9.146 16.654-19.63 30.066-25.859 33.081-2.878 1.393-3.89 1.433-5.119.204-2.719-2.719 2.535-14.352 11.699-25.902 3.112-3.922 8.794-8.457 10.596-8.457 1.05 0 1.114-.257.832-3.362-.557-6.148-4.117-10.254-9.53-10.996-2.285-.313-2.639-.569-3.529-2.54-1.065-2.363-4.192-5.483-6.894-6.88-3.094-1.6-8.871-2.238-13.35-1.474-7.335 1.252-14.021 5.228-21.836 12.986-5.566 5.526-9.873 11.41-13.971 19.088-1.698 3.182-2.955 5.282-2.792 4.665 2.455-9.27 2.791-11.52 2.805-18.771.013-6.575-.151-7.98-1.256-10.743-3.985-9.973-14.888-10.43-27.138-1.137-2.08 1.578-3.782 2.78-3.782 2.672 0-.108.999-1.406 2.222-2.885 1.611-1.95 2.063-2.88 1.646-3.383-1.008-1.214-5.684-2.497-10.341-2.837-3.831-.28-4.913-.152-7.174.848-5.093 2.253-13.475 11.678-20.878 23.477-1.695 2.703-3.762 5.629-4.591 6.501-2.054 2.16-9.697 5.75-14.005 6.578-3.202.614-10.48.425-11.197-.291-.337-.336 4.963-9.33 9.592-16.279 11.561-17.354 21.861-27.177 28.499-27.177 1.73 0 2.132-.203 2.132-1.077 0-2.993-6.793-7.42-12.907-8.413-4.094-.664-4.896-.664-8.256-.002zm285.316 16.488c-13.857 3.015-29.637 19.37-37.599 38.971-3.795 9.342-4.838 14.214-4.549 21.247.288 6.971 1.664 10.656 5.56 14.882 3.509 3.807 6.109 5.005 10.862 5.005 5.235 0 7.744-1.357 13.469-7.284l4.503-4.662.987 2.779c2.098 5.904 7.071 9.142 14.101 9.179 3.216.017 4.516-.27 7.214-1.595 6.433-3.159 14.148-11.815 21.423-24.037 3.533-5.936 14.814-28.024 15.602-30.55.393-1.26.327-1.284-3.084-1.12l-3.486.168-4.852 7.845c-12.093 19.556-22.24 30.436-27.219 29.186-2.726-.684-2.517-4.819.566-11.255 5.249-10.954 15.205-22.681 20.084-23.657 1.621-.324 1.628-.344 1.333-3.604-.553-6.094-4.14-10.174-9.602-10.924-2.254-.308-2.723-.602-3.35-2.1-1.79-4.27-6.169-7.597-11.434-8.69-3.734-.774-6.213-.723-10.529.216zM61.549 83.26c1.048.497 1.906 1.135 1.906 1.418 0 .283-1.365 2.334-3.032 4.56-1.669 2.224-5.07 7.274-7.558 11.222-5.494 8.712-8.747 13.007-13.355 17.622-5.401 5.41-8.565 6.912-10.26 4.87-1.741-2.098 2.753-14.902 8.35-23.792 8.33-13.228 17.187-19.109 23.949-15.9zm127.053 2.767c-.144 5.49-5.022 17.491-10.66 26.235-2.855 4.425-7.588 9.624-9.808 10.773-3.933 2.033-8.199.025-9.311-4.382-1.457-5.777-1.397-6.089 2.095-10.985 11.018-15.444 21.736-25.678 26.373-25.182 1.335.142 1.396.309 1.311 3.54zm66.964-2.525c1.675 1.021 1.793 1.252 1.12 2.182-5.182 7.156-7.617 10.719-10.554 15.443-5.185 8.338-8.42 12.485-13.669 17.525-3.46 3.321-5.259 4.639-6.703 4.909-2.878.54-3.357.013-3.011-3.319.878-8.483 8.154-22.593 15.708-30.46 6.508-6.777 12.616-9.02 17.109-6.28zm174.093.214l1.435.941-1.772 2.351c-.975 1.294-3.664 5.251-5.978 8.796-8.915 13.658-10.66 16.048-15.239 20.876-6.797 7.165-11.308 9.109-11.7 5.044-.419-4.342 4.284-16.318 9.509-24.217 2.886-4.362 8.812-10.751 11.532-12.433 4.586-2.834 9.18-3.345 12.213-1.358zm-334.586 58.07c-4.395 16.734-9.29 29.254-12.12 30.998-1.595.983-1.711.063-.532-4.229 1.787-6.51 13.79-35.139 14.453-34.476.097.097-.714 3.565-1.801 7.707zM2.397 160.471C.424 165.66.131 176.908 1.8 183.429c5.863 22.925 31.234 37.489 73.468 42.174 10.615 1.177 38.322 1.337 50.386.29 31.574-2.741 62.532-8.523 93.858-17.531 7.397-2.127 24.76-7.643 25.602-8.134.741-.432-.77-3.642-1.571-3.335-2.11.809-19.37 6.143-26.273 8.118-63.109 18.061-125.248 22.811-165.582 12.658-26.083-6.565-41.824-18.49-46.272-35.052-1.511-5.624-1.224-15.158.643-21.332.195-.644-.237-1.099-1.444-1.519-1.556-.543-1.768-.475-2.217.705z" clip-rule="evenodd"/>
  <path fill="#DDAD3F" fill-rule="evenodd" d="M270.222 159.062v6.103l-2.079-1.06c-9.931-5.063-17.905 10.24-9.168 17.592 2.455 2.066 5.538 2.428 8.713 1.023 2.192-.969 2.633-1.018 2.9-.323.175.459 1.029.82 1.936.82h1.621v-30.258h-3.923v6.103zm69.027 7.891c.167 13.258.236 14.054 1.33 15.147.635.634 2.085 1.304 3.222 1.489 2.015.327 2.068.29 2.068-1.419 0-1.348-.246-1.754-1.061-1.754-.583 0-1.214-.399-1.401-.887-.187-.487-.34-6.665-.34-13.728v-12.842H339.074l.175 13.994zm-55.859-3.114c-3.291 1.469-5.888 5.548-5.88 9.236.015 7.2 6.315 11.85 13.787 10.178 3.287-.736 3.824-1.189 3.313-2.796-.29-.914-.602-.995-2.134-.556-4.583 1.314-8.936-.001-10.227-3.089-1.553-3.719-1.621-3.681 6.541-3.681h7.361l-.36-2.661c-.198-1.464-.808-3.267-1.355-4.006-2.276-3.073-7.343-4.277-11.046-2.625zm39.785.087c-3.91 2.033-5.555 5.015-5.447 9.87.141 6.337 5.724 10.698 12.411 9.695 3.495-.524 4.523-1.177 4.523-2.875 0-1.148-.2-1.361-.981-1.049-2.003.801-7.138.908-8.491.176-1.676-.906-3.251-3.046-3.731-5.071l-.367-1.541H335.783v-2.158c0-5.793-7.239-9.839-12.608-7.047zm30.259-.09c-4.957 2.203-7.235 8.838-4.825 14.058 1.929 4.181 5.902 6.345 10.346 5.639 6.866-1.092 10.373-8.932 6.917-15.467-2.245-4.246-8-6.203-12.438-4.23zm23.027.61c-2.49 1.689-2.575 1.699-2.575.28 0-.822-.374-1.121-1.401-1.121h-1.401v29.138h3.362v-11.848l1.418 1.114c4.516 3.553 11.303 1.171 13.154-4.617.937-2.926.406-8.486-.989-10.37-3.015-4.072-7.796-5.136-11.568-2.576zm20.691-.12c-4.2 2.379-6.049 8.592-4.01 13.472 1.643 3.933 6.655 6.423 11.472 5.701 4.2-.63 5.033-1.121 4.716-2.778-.232-1.214-.478-1.385-1.471-1.022-2.464.902-7.474.498-9.137-.737-1.506-1.117-3.145-4.517-2.609-5.411.139-.231 3.422-.42 7.296-.42h7.042l-.271-2.82c-.59-6.148-7.298-9.229-13.028-5.985zm22.443.44l-1.96 1.721-.362-1.441c-.263-1.045-.73-1.441-1.702-1.441h-1.34v19.612h3.922v-14.54l1.653-.855c.91-.47 2.144-.855 2.742-.855 1.136 0 1.769-1.019 1.769-2.847 0-1.678-2.459-1.341-4.722.646zm-118.629 8.643l3.717 9.804 2.042.002c1.424.002 2.158-.294 2.429-.978.213-.54 1.734-4.511 3.379-8.826 1.645-4.314 3.17-8.303 3.389-8.863.348-.892.133-.997-1.713-.841l-2.11.178-2.574 7.41c-1.416 4.075-2.731 7.227-2.922 7.005-.192-.223-1.457-3.621-2.81-7.55l-2.46-7.145h-4.084l3.717 9.804zm-32.794-5.851c4.594 3.613 2.326 12.858-3.154 12.858-3.833 0-6.375-3.589-5.849-8.256.55-4.878 5.46-7.389 9.003-4.602zm22.742.326c2.122 2.696 1.691 3.006-4.176 3.006h-5.337l.854-1.653c1.111-2.149 2.291-2.792 5.157-2.813 1.873-.014 2.573.278 3.502 1.46zm39.826-.356c.616.616 1.12 1.625 1.12 2.241 0 1.038-.374 1.121-5.043 1.121-2.774 0-5.043-.233-5.043-.517 0-.285.653-1.294 1.451-2.242 1.216-1.445 1.85-1.724 3.922-1.724 1.725 0 2.811.339 3.593 1.121zm30.862.517c1.414 1.414 1.638 2.06 1.638 4.726 0 4.014-.689 5.711-2.75 6.777-3.18 1.644-7.063.622-8.348-2.199-1.494-3.278-.402-8.942 1.992-10.337.539-.314 2.072-.579 3.405-.588 1.946-.014 2.748.306 4.063 1.621zm22.414 0c1.482 1.482 1.637 1.993 1.637 5.366 0 3.374-.155 3.885-1.637 5.367-1.775 1.774-3.982 2.117-6.434.999-2.84-1.293-4.01-6.596-2.265-10.271 1.639-3.455 5.976-4.183 8.699-1.461zm21.25-.517c.616.616 1.12 1.625 1.12 2.241 0 1.038-.374 1.121-5.043 1.121-3.229 0-5.043-.217-5.043-.604 0-.331.737-1.34 1.638-2.241 2.041-2.041 5.556-2.289 7.328-.517z" clip-rule="evenodd"/>
</svg>
