<svg width="150" height="16" viewBox="0 0 150 16" fill="none" xmlns="http://www.w3.org/2000/svg">
<path d="M2 13L19.5023 4.02445C20.6867 3.4171 22.1296 3.66269 23.0463 4.62765L29.4537 11.3723C30.3704 12.3373 31.8133 12.5829 32.9977 11.9756L48.5023 4.02445C49.6867 3.4171 51.1296 3.66269 52.0463 4.62765L58.4537 11.3723C59.3704 12.3373 60.8133 12.5829 61.9977 11.9756L77.5023 4.02445C78.6867 3.4171 80.1296 3.66269 81.0463 4.62765L87.4537 11.3723C88.3704 12.3373 89.8133 12.5829 90.9977 11.9756L106.502 4.02445C107.687 3.4171 109.13 3.66269 110.046 4.62765L116.454 11.3723C117.37 12.3373 118.813 12.5829 119.998 11.9756L135.502 4.02445C136.687 3.4171 138.13 3.66269 139.046 4.62765L147 13" stroke="#FFE144" stroke-width="6"/>
</svg>
