<svg xmlns="http://www.w3.org/2000/svg" width="167" height="92" fill="none" viewBox="0 0 167 92">
  <path fill="#currentColor" fill-rule="evenodd" d="M12.674.33C6.28 1.703 2.357 5.51.7 11.95c-.685 2.664-.782 7.963-.65 35.778l.156 32.651 1.212 2.423c1.584 3.168 5.086 6.672 8.073 8.076L11.878 92H155.65l2.686-1.412c2.855-1.5 5.919-4.527 7.497-7.405.892-1.627.968-4.132 1.106-36.036.168-38.888.291-37.572-3.958-42.095-1.281-1.364-3.574-3.04-5.095-3.724L155.12.082 84.825.007C46.163-.034 13.695.111 12.674.33zm71.09 14.292v10.05l-8.886-.145-8.886-.145v-3.99l-7.411.146-7.411.146-.563 1.997c-.412 1.465-1.179 2.403-2.884 3.527-6.696 4.415-9.156 11.627-7.23 21.2 1.823 9.052 6.3 20.208 10.305 25.671.892 1.216 2.72 2.852 4.064 3.636 2.095 1.222 2.827 1.38 5.146 1.106 5.14-.605 7.449-2.975 12.663-12.996 4.662-8.96 8.396-11.882 13.463-10.534 3.161.841 5.946 4.096 9.743 11.389 4.767 9.156 8.224 12.308 13.506 12.318 2.387.005 5.511-1.926 7.817-4.83 5.431-6.842 11.149-23.434 11.116-32.255-.023-5.896-3.511-12.231-8.261-15.003-1.509-.88-2.337-1.733-2.337-2.405 0-.573-.247-1.501-.549-2.063-.502-.933-1.173-1.022-7.693-1.022h-7.143v4.226H87.478V4.563l27.985.137 27.985.136.136 40.908c.108 32.376-.003 40.995-.53 41.328-.367.232-27.218.425-59.67.43-57.794.008-59.013-.013-59.55-1.014-.365-.678-.55-14.28-.55-40.447 0-26.166.185-39.769.55-40.447.532-.992 1.428-1.022 30.24-1.022h29.69v10.05zM61.198 36.453c.54.393 1.042 1.284 1.119 1.981.075.697.158 1.446.182 1.664.024.218.713.396 1.53.396 2.055 0 2.758.893 2.758 3.502 0 2.544-1.025 3.894-2.955 3.894-.949 0-1.289.288-1.289 1.091 0 2.408-.923 3.135-3.979 3.135s-3.979-.727-3.979-3.135c0-.803-.34-1.091-1.288-1.091-1.931 0-2.956-1.35-2.956-3.894 0-2.609.703-3.502 2.759-3.502 1.23 0 1.485-.226 1.485-1.32 0-2.835 4.126-4.531 6.613-2.72zm49.517 1.506c1.714 1.707-.209 4.594-2.565 3.85-1.294-.409-1.919-2.64-1.037-3.699.788-.946 2.722-1.027 3.602-.151zm-4.972 4.95c.978.974 1.031 1.514.285 2.903-1.064 1.98-4.226.965-4.226-1.356 0-2.224 2.339-3.142 3.941-1.547zm10.088.344c1.028 1.463 1.028 1.719-.008 2.75-1.169 1.164-3.028 1.033-3.846-.27-.578-.923-.554-1.307.151-2.377 1.049-1.596 2.623-1.639 3.703-.103zm-4.727 5.222c.429 1.345-.132 2.942-1.174 3.34-1.396.534-2.797-.207-3.167-1.672-.665-2.64 3.519-4.247 4.341-1.668z" clip-rule="evenodd"/>
</svg>
