<svg xmlns="http://www.w3.org/2000/svg" width="99" height="113" fill="none" viewBox="0 0 99 113">
  <path fill="#currentColor" fill-rule="evenodd" d="M47.578.166c-1.124.258-2.093.76-7.122 3.7l-5.548 3.24c-2.414 1.411-11.716 6.825-19.323 11.247a2106.69 2106.69 0 00-11.2 6.546C2.237 26.165.897 27.83.254 30.036.026 30.816 0 33.54 0 56.512V82.12l.409 1.246c.448 1.367 1.575 3.044 2.58 3.84.324.256 2.271 1.441 4.327 2.632 2.055 1.191 4.632 2.688 5.725 3.325 1.093.638 3.42 1.989 5.169 3.003 1.749 1.013 4.075 2.367 5.168 3.007 1.094.64 4.314 2.516 7.157 4.168l8.11 4.715 5.208 3.028c2.775 1.612 4.162 2.037 6.162 1.89 2.221-.164 2.14-.126 10.26-4.856 1.355-.79 5.113-2.975 8.35-4.855 5.866-3.408 6.546-3.805 11.211-6.54a568.775 568.775 0 013.022-1.761c.929-.53 4.396-2.543 8.667-5.032 3.81-2.22 4.415-2.611 5.102-3.298.828-.829 1.672-2.212 2.075-3.402.287-.847.298-1.877.298-26.992 0-25.305-.01-26.135-.303-26.911-.423-1.115-1.378-2.491-2.251-3.243-.405-.348-1.606-1.138-2.67-1.754A15854.56 15854.56 0 0175.224 13.55l-6.202-3.607A7655.494 7655.494 0 0157.65 3.327c-4.21-2.456-4.717-2.73-5.578-3-1.146-.36-3.292-.437-4.495-.161zM53.082 24.6c10.13.794 19.85 6.721 25.215 15.378.692 1.116.725 1.217.466 1.414-.153.117-2.068 1.262-4.255 2.546a1051.502 1051.502 0 00-6.1 3.606c-1.17.7-2.178 1.212-2.242 1.139a41.249 41.249 0 01-.972-1.4c-1.746-2.58-4.449-4.885-7.347-6.265-2.142-1.02-3.525-1.373-5.764-1.474-5.001-.226-9.103 1.288-12.588 4.647-2.247 2.165-3.808 4.844-4.62 7.929-.32 1.216-.425 2.06-.482 3.877-.064 2.063-.027 2.522.328 4.103.715 3.19 2.09 5.855 4.146 8.036 2.387 2.532 5.028 4.091 8.367 4.939 1.81.46 6.422.427 8.194-.057 2.976-.814 5.452-2.238 7.656-4.402l1.298-1.275 6.216 3.739c3.42 2.056 6.215 3.775 6.212 3.82-.011.216-2.08 2.652-3.38 3.978-4.92 5.019-11.203 8.219-18.13 9.234-2.252.33-6.407.33-8.647 0-7.104-1.045-13.292-4.24-18.367-9.485-5.07-5.237-8.042-11.537-8.9-18.862-.25-2.147-.088-6.708.316-8.848 1.935-10.238 8.628-18.966 17.91-23.357 4.154-1.965 8.017-2.88 13.041-3.093.262-.01 1.356.05 2.43.133zm24.369 27.312v1.362h2.306c1.727 0 2.311-.05 2.328-.2.012-.11.038-.597.057-1.081.02-.485.045-1.008.057-1.162.02-.246.21-.28 1.544-.28h1.521l-.022 1.161a39.009 39.009 0 00-.01 1.362c.008.143.394.2 1.363.2h1.352v3.044h-2.712l.044 2.362.044 2.363 1.034.022c.568.013 1.159.03 1.312.04.244.016.278.204.278 1.534v1.515l-1.377.047-1.377.046.036 1.322.035 1.321h-1.518c-1.753 0-1.733.02-1.65-1.682l.046-.961-2.346-.044-2.345-.045v2.732h-3.022v-2.723h-2.704v-1.522c0-1.098.056-1.528.2-1.545.109-.013.699-.03 1.311-.04l1.113-.017.044-2.363.044-2.362h-2.712v-3.044h2.704v-2.723H77.45v1.361zm.159 6.808v2.243H82.063V56.478H77.61v2.242z" clip-rule="evenodd"/>
</svg>
