<svg xmlns="http://www.w3.org/2000/svg" width="61" height="60" fill="none" viewBox="0 0 61 60">
  <path fill="#currentColor" fill-rule="evenodd" d="M30.468.13c-.615.175-1.102.471-1.588.967-.492.502-.775 1.002-.925 1.639a3.754 3.754 0 00.372 2.708c.133.233 1.728 1.883 4.552 4.709l4.346 4.35-14.213.02c-13.318.019-14.238.028-14.594.15-1.965.67-3.013 2.667-2.418 4.61.242.79 1.011 1.714 1.73 2.078.9.455.5.43 7.337.458l6.269.026-10.322 10.31C2.966 40.194.643 42.555.468 42.872c-.79 1.44-.564 3.204.558 4.34 1.096 1.112 2.689 1.402 4.134.755.5-.224.716-.428 5.399-5.085 3.094-3.077 4.89-4.813 4.912-4.745.018.058.106.873.194 1.81l.162 1.703.656 2.163.658 2.163 1.05 1.96 1.05 1.961 1.424 1.728 1.425 1.727 1.721 1.407 1.722 1.407 1.978 1.053 1.978 1.053 2.09.636 2.089.635 2.267.229 2.268.228 2.261-.23 2.26-.23 2.085-.631 2.084-.632 1.98-1.055 1.98-1.056 1.726-1.41c1.483-1.212 1.83-1.537 2.459-2.297 2.176-2.632 2.036-2.431 3.165-4.533l1.063-1.98.627-2.037.627-2.037.24-2.314.24-2.315-.24-2.314-.24-2.315-.628-2.036-.627-2.037-1.05-1.963-1.05-1.963-1.287-1.555c-1.19-1.439-2.07-2.335-11.748-11.969C36.076 3.075 33.573.625 33.255.447c-.797-.445-1.9-.571-2.787-.318zm9.29 21.86c1.379.141 1.583.183 2.92.59 1.273.387 1.59.518 2.758 1.137 1.155.613 1.468.822 2.501 1.668 1.02.835 1.314 1.127 2.144 2.136.842 1.022 1.051 1.335 1.68 2.51.629 1.176.77 1.51 1.136 2.703.39 1.27.43 1.467.583 2.934l.164 1.573-.161 1.575c-.153 1.484-.187 1.654-.586 2.945-.37 1.195-.516 1.54-1.138 2.703-.62 1.161-.837 1.484-1.669 2.496-.818.995-1.123 1.3-2.125 2.123-1.015.835-1.344 1.056-2.5 1.676-1.198.644-1.473.758-2.777 1.154-1.359.413-1.541.45-2.97.594l-1.522.154-1.521-.152c-1.437-.144-1.603-.177-2.97-.594-1.307-.399-1.578-.512-2.799-1.169-1.158-.623-1.51-.858-2.475-1.649-.956-.783-1.271-1.1-2.106-2.11-.866-1.05-1.065-1.346-1.694-2.523-.623-1.167-.764-1.503-1.133-2.703-.393-1.28-.432-1.474-.585-2.944l-.165-1.574.164-1.574c.154-1.472.192-1.662.586-2.944.367-1.193.511-1.537 1.116-2.666.748-1.396.735-1.378 1.878-2.764.609-.74 1.008-1.13 1.934-1.89 1.014-.834 1.339-1.052 2.495-1.671 1.196-.64 1.475-.756 2.785-1.154 1.31-.397 1.591-.456 2.788-.583 1.726-.183 1.551-.183 3.264-.007zm-2.564 6.033c-5.05.552-8.746 5.09-8.245 10.128a9.297 9.297 0 004.884 7.281c4.51 2.407 10.162.684 12.559-3.83 3.103-5.844-.672-12.879-7.29-13.584-.539-.057-.997-.1-1.017-.096-.02.004-.421.05-.89.101z" clip-rule="evenodd"/>
</svg>
