<svg xmlns="http://www.w3.org/2000/svg" width="66" height="66" fill="none" viewBox="0 0 66 66">
  <path fill="#currentColor" fill-rule="evenodd" d="M5.431.087c-1.307.237-2.5.872-3.48 1.852C1.218 2.672.772 3.357.423 4.288c-.466 1.24-.433-1.09-.414 28.988l.018 27.197.147.517c.713 2.499 2.431 4.205 4.898 4.864L5.62 66h54.787l.548-.146c2.488-.665 4.234-2.412 4.899-4.9l.146-.548V5.608l-.146-.548c-.334-1.25-.905-2.258-1.772-3.13-.85-.853-1.81-1.403-3.09-1.769l-.518-.147L33.216.003C9.977-.007 5.879.006 5.43.087zm10.87 8.996c1.728.413 3.228 1.672 3.987 3.347.653 1.44.65 3.39-.007 4.84a6.152 6.152 0 01-3.017 3.01c-1.44.652-3.39.65-4.84-.008a6.007 6.007 0 01-1.824-1.296c-1.135-1.17-1.665-2.49-1.665-4.134 0-1.711.592-3.109 1.816-4.287 1.48-1.424 3.502-1.96 5.55-1.472zm29.324 16.716c5.443.555 9.834 4.9 10.43 10.323.048.433.073 3.92.073 10.329v9.675h-9.904l-.018-9.184-.018-9.183-.177-.517c-.558-1.635-1.752-2.819-3.401-3.371-.391-.132-.605-.156-1.341-.156-.737 0-.95.024-1.343.156-1.658.555-2.87 1.765-3.42 3.416l-.157.472-.018 9.183-.018 9.184h-9.904V26.4h9.906v3.923l.467-.604c1.313-1.699 3.468-3.083 5.74-3.687 1.103-.293 1.922-.355 3.103-.234zm-25.82 15.465v14.862H9.9V26.4h9.906v14.863z" clip-rule="evenodd"/>
</svg>
