<svg xmlns="http://www.w3.org/2000/svg" width="100" height="51" fill="none" viewBox="0 0 100 51">
  <path fill="#currentColor" fill-rule="evenodd" d="M47.87.01c-2.78.09-3.515.128-5.413.273-9.67.737-18.648 2.914-26.046 6.315a68.037 68.037 0 00-3.36 1.708c-2.46 1.387-4.597 2.877-6.41 4.47-.708.623-1.946 1.877-2.519 2.553C1.774 18.1.444 20.94.068 23.982c-.091.742-.09 2.303.002 3.056.445 3.631 2.277 7.02 5.522 10.21 6.664 6.553 18.614 11.337 32.625 13.06C42.31 50.81 45.54 51 50.02 51c3.285 0 4.708-.052 7.621-.276 7.157-.552 13.992-1.906 20.105-3.985 7.751-2.637 13.981-6.375 17.815-10.69 2.53-2.85 3.978-5.823 4.37-8.983.094-.752.093-2.38 0-3.136-.63-5.076-4.135-9.872-10.147-13.888C81.18 4.296 68.39.707 54.298.083 53.058.028 48.784-.02 47.87.01zm2.051 6.005c0 .052-.19 1.045-.742 3.887a1163.226 1163.226 0 00-.646 3.332l-.019.086 3.508.016c2.89.014 3.596.028 4.015.08 1.663.205 2.658.466 3.595.942 1.686.858 2.478 2.394 2.39 4.633-.013.335-.052.796-.086 1.023-.052.343-1.073 5.678-2.323 12.138-.15.78-.274 1.421-.274 1.427 0 .005-1.354.01-3.009.01-1.655 0-3.009-.013-3.008-.03 0-.016.202-1.074.45-2.35 1.448-7.482 1.97-10.237 2.013-10.605.116-1.008-.09-1.838-.543-2.198-.309-.244-.788-.427-1.43-.544-.302-.055-.783-.067-3.256-.08-1.596-.01-2.901-.004-2.901.011s-.114.605-.253 1.311c-.14.706-.633 3.258-1.098 5.671a3568.793 3568.793 0 01-1.66 8.607l-.043.207h-2.97c-2.81 0-2.969-.004-2.95-.069.023-.076.132-.637 1.457-7.506a290340.885 290340.885 0 013.275-16.978c.315-1.634.58-2.993.589-3.02.023-.071 5.92-.072 5.92-.001zm-17.41 7.399c.886.131 1.217.194 1.724.326 2.903.755 4.826 2.629 5.425 5.284.177.781.197 1.002.196 2.111-.001 1.098-.03 1.417-.217 2.44-.512 2.796-1.784 5.082-3.903 7.017-1.846 1.685-3.927 2.58-6.644 2.857a23.75 23.75 0 00-.762.087c-.086.013-1.728.035-3.65.048l-3.493.025-.389 2.006-.708 3.66-.32 1.652-2.979.01c-2.746.01-2.978.005-2.978-.054 0-.036.177-.98.394-2.096l1.168-6.044 1.76-9.11 1.467-7.613c.267-1.385.495-2.559.506-2.608l.021-.09 6.477.014c5.724.012 6.526.021 6.906.078zm46.66 0c.865.128 1.21.192 1.651.307 1.571.408 2.737 1.043 3.707 2.02.881.887 1.43 1.873 1.754 3.148.578 2.281.13 5.598-1.087 8.043-.603 1.212-1.27 2.13-2.29 3.156-2.048 2.059-4.167 3.054-7.155 3.36-.332.035-.675.074-.761.087-.086.014-1.73.036-3.652.05l-3.496.024-.149.767-.706 3.66-.559 2.891-2.978.01c-2.786.01-2.978.006-2.978-.057 0-.07.453-2.448.86-4.517.128-.65.621-3.199 1.096-5.666a39904.168 39904.168 0 012.967-15.385c.196-1.017.366-1.881.377-1.92.02-.067.307-.07 6.495-.056 5.723.012 6.524.021 6.904.078zm-54.925 4.294c0 .017-1.248 6.506-1.95 10.136-.127.66-.238 1.24-.244 1.29l-.013.09 2.286-.003c1.257 0 2.497-.019 2.755-.04 1.774-.146 3.217-.66 4.184-1.49.887-.76 1.577-2.01 1.991-3.605.284-1.09.429-2.317.37-3.128-.14-1.9-1.072-2.78-3.34-3.156-.478-.08-.675-.085-3.274-.1-1.52-.008-2.764-.006-2.764.006zm46.66-.005c0 .016-.637 3.325-1.715 8.902a281.66 281.66 0 00-.482 2.528l-.01.09 2.283-.002c2.274 0 2.892-.025 3.598-.142 2.408-.399 3.794-1.358 4.71-3.261.61-1.266.992-2.959.994-4.392.003-2.243-.897-3.22-3.34-3.624-.478-.08-.675-.085-3.273-.1-1.52-.008-2.765-.008-2.765.001z" clip-rule="evenodd"/>
</svg>
